<?xml version="1.0" encoding="UTF-8"?>
<svg id="Layer_1" xmlns="http://www.w3.org/2000/svg" version="1.1" viewBox="0 0 1920 1080">
  <!-- Generator: Adobe Illustrator 29.8.3, SVG Export Plug-In . SVG Version: 2.1.1 Build 3)  -->
  <defs>
    <style>
      .st0 {
        stroke: #fff;
        stroke-width: .71px;
      }

      .st0, .st1 {
        stroke-miterlimit: 10;
      }

      .st0, .st2, .st3 {
        fill: #fff;
      }

      .st1 {
        stroke: #231f20;
        stroke-width: 1.14px;
      }

      .st1, .st4 {
        fill: #a8442f;
      }

      .st3 {
        font-family: LTCBroadway-Regular, 'LTC Broadway';
        font-size: 60px;
      }
    </style>
  </defs>
  <ellipse class="st1" cx="959.86" cy="499.67" rx="179.72" ry="172.75"/>
  <text class="st3" transform="translate(888.6 435.53)"><tspan x="0" y="0">LUX</tspan></text>
  <g>
    <rect class="st0" x="864.29" y="508.8" width="10.7" height="36.49" rx="5.35" ry="5.35"/>
    <g>
      <g>
        <rect class="st2" x="870.13" y="450.91" width="169.3" height="302.59" rx="12" ry="12"/>
        <rect class="st4" x="884.72" y="469.4" width="57.41" height="53.51" rx="12" ry="12"/>
      </g>
      <rect class="st0" x="864.29" y="551.37" width="10.7" height="36.49" rx="5.35" ry="5.35"/>
    </g>
  </g>
  <path class="st2" d="M880.83,442.64c-14.05.47-35.35,1.03-49.61,1.28,0,0,.79-.79.79-.79l-.08,34.78c-.18,34.45-.62,69.91-1.69,104.34-.8-45.49-.42-93.53.18-139.14,0,0,0-.79,0-.79h.78c14.33.09,35.49,0,49.63.31h0Z"/>
  <path class="st2" d="M1029.22,438.52c14.06-.32,35.37-.25,49.63-.31,0,0,.78,0,.78,0v.79c.61,45.64.98,93.62.19,139.14-1.07-34.44-1.51-69.89-1.69-104.34,0,0-.08-34.78-.08-34.78l.79.79c-14.32-.22-35.48-.8-49.61-1.28h0Z"/>
</svg>